<svg width="162" height="9" viewBox="0 0 162 9" fill="none" xmlns="http://www.w3.org/2000/svg">
<path d="M6.88037 8H5.84375V1.02832H1.9873V8H0.956055V0.179688H6.88037V8ZM8.34131 5.04053C8.34131 4.47119 8.45231 3.95915 8.67432 3.50439C8.8999 3.04964 9.21143 2.69873 9.60889 2.45166C10.0099 2.20459 10.4665 2.08105 10.9785 2.08105C11.7699 2.08105 12.409 2.35498 12.896 2.90283C13.3866 3.45068 13.6318 4.17936 13.6318 5.08887V5.15869C13.6318 5.72445 13.5226 6.23291 13.3042 6.68408C13.0894 7.13167 12.7796 7.48079 12.375 7.73145C11.974 7.9821 11.512 8.10742 10.9893 8.10742C10.2015 8.10742 9.56234 7.8335 9.07178 7.28564C8.5848 6.73779 8.34131 6.0127 8.34131 5.11035V5.04053ZM9.34033 5.15869C9.34033 5.80322 9.48893 6.32064 9.78613 6.71094C10.0869 7.10124 10.488 7.29639 10.9893 7.29639C11.4941 7.29639 11.8952 7.09945 12.1924 6.70557C12.4896 6.30811 12.6382 5.75309 12.6382 5.04053C12.6382 4.40316 12.486 3.88753 12.1816 3.49365C11.8809 3.09619 11.4798 2.89746 10.9785 2.89746C10.488 2.89746 10.0923 3.09261 9.7915 3.48291C9.49072 3.87321 9.34033 4.4318 9.34033 5.15869ZM19.5562 2.18848V8H18.5571V3.01025H16.5806L16.4624 5.18555C16.3979 6.18457 16.2297 6.89893 15.9575 7.32861C15.689 7.7583 15.2611 7.9821 14.6738 8H14.2764V7.12451L14.561 7.10303C14.8833 7.06722 15.1143 6.88102 15.2539 6.54443C15.3936 6.20785 15.4831 5.5848 15.5225 4.67529L15.6299 2.18848H19.5562ZM22.2363 4.19189H23.7456C24.4045 4.19906 24.9255 4.37093 25.3086 4.70752C25.6917 5.04411 25.8833 5.50065 25.8833 6.07715C25.8833 6.65723 25.6864 7.12272 25.2925 7.47363C24.8986 7.82454 24.3687 8 23.7026 8H21.2427V2.18848H22.2363V4.19189ZM22.2363 5.00293V7.18896H23.7134C24.0858 7.18896 24.374 7.09408 24.5781 6.9043C24.7822 6.71094 24.8843 6.44775 24.8843 6.11475C24.8843 5.79248 24.784 5.5293 24.5835 5.3252C24.3866 5.11751 24.109 5.01009 23.751 5.00293H22.2363ZM30.3198 3.77832C30.3198 3.50618 30.216 3.29134 30.0083 3.13379C29.8006 2.97266 29.516 2.89209 29.1543 2.89209C28.8034 2.89209 28.5098 2.9834 28.2734 3.16602C28.0407 3.34863 27.9243 3.56348 27.9243 3.81055H26.936C26.936 3.30566 27.1473 2.89209 27.5698 2.56982C27.9924 2.24756 28.5205 2.08643 29.1543 2.08643C29.8346 2.08643 30.3646 2.23324 30.7441 2.52686C31.1237 2.81689 31.3135 3.23226 31.3135 3.77295C31.3135 4.03434 31.2347 4.27425 31.0771 4.49268C30.9196 4.7111 30.6958 4.88477 30.4058 5.01367C31.0825 5.24284 31.4209 5.69401 31.4209 6.36719C31.4209 6.90072 31.215 7.32324 30.8032 7.63477C30.3914 7.94629 29.8418 8.10205 29.1543 8.10205C28.4847 8.10205 27.9315 7.93913 27.4946 7.61328C27.0614 7.28385 26.8447 6.83984 26.8447 6.28125H27.833C27.833 6.56413 27.9583 6.80762 28.209 7.01172C28.4632 7.21224 28.7783 7.3125 29.1543 7.3125C29.5339 7.3125 29.84 7.22477 30.0728 7.04932C30.3055 6.87386 30.4219 6.64648 30.4219 6.36719C30.4219 6.04134 30.3234 5.80859 30.1265 5.66895C29.9331 5.52572 29.6305 5.4541 29.2188 5.4541H28.2251V4.61621H29.3047C29.9814 4.59831 30.3198 4.31901 30.3198 3.77832ZM32.4468 5.04053C32.4468 4.47119 32.5578 3.95915 32.7798 3.50439C33.0054 3.04964 33.3169 2.69873 33.7144 2.45166C34.1154 2.20459 34.5719 2.08105 35.084 2.08105C35.8753 2.08105 36.5145 2.35498 37.0015 2.90283C37.492 3.45068 37.7373 4.17936 37.7373 5.08887V5.15869C37.7373 5.72445 37.6281 6.23291 37.4097 6.68408C37.1948 7.13167 36.8851 7.48079 36.4805 7.73145C36.0794 7.9821 35.6175 8.10742 35.0947 8.10742C34.307 8.10742 33.6678 7.8335 33.1772 7.28564C32.6903 6.73779 32.4468 6.0127 32.4468 5.11035V5.04053ZM33.4458 5.15869C33.4458 5.80322 33.5944 6.32064 33.8916 6.71094C34.1924 7.10124 34.5934 7.29639 35.0947 7.29639C35.5996 7.29639 36.0007 7.09945 36.2979 6.70557C36.5951 6.30811 36.7437 5.75309 36.7437 5.04053C36.7437 4.40316 36.5915 3.88753 36.2871 3.49365C35.9863 3.09619 35.5853 2.89746 35.084 2.89746C34.5934 2.89746 34.1978 3.09261 33.897 3.48291C33.5962 3.87321 33.4458 4.4318 33.4458 5.15869ZM39.0747 8V2.18848H41.3413C42.1147 2.18848 42.7074 2.32454 43.1191 2.59668C43.5345 2.86523 43.7422 3.2609 43.7422 3.78369C43.7422 4.05225 43.6616 4.29574 43.5005 4.51416C43.3394 4.729 43.1012 4.89372 42.7861 5.0083C43.137 5.09066 43.4181 5.25179 43.6294 5.4917C43.8442 5.73161 43.9517 6.01807 43.9517 6.35107C43.9517 6.8846 43.7547 7.29281 43.3608 7.57568C42.9705 7.85856 42.4173 8 41.7012 8H39.0747ZM40.0684 5.44873V7.19971H41.7119C42.1273 7.19971 42.437 7.12272 42.6411 6.96875C42.8488 6.81478 42.9526 6.59814 42.9526 6.31885C42.9526 5.73877 42.5265 5.44873 41.6743 5.44873H40.0684ZM40.0684 4.65381H41.3521C42.283 4.65381 42.7485 4.38167 42.7485 3.8374C42.7485 3.29313 42.3081 3.01204 41.4272 2.99414H40.0684V4.65381ZM48.8555 8C48.7982 7.88542 48.7516 7.68132 48.7158 7.3877C48.2539 7.86751 47.7025 8.10742 47.0615 8.10742C46.4886 8.10742 46.0177 7.94629 45.6489 7.62402C45.2837 7.29818 45.1011 6.88639 45.1011 6.38867C45.1011 5.78353 45.3302 5.31445 45.7886 4.98145C46.2505 4.64486 46.8986 4.47656 47.7329 4.47656H48.6997V4.02002C48.6997 3.67269 48.5959 3.39697 48.3882 3.19287C48.1805 2.98519 47.8743 2.88135 47.4697 2.88135C47.1152 2.88135 46.818 2.97087 46.5781 3.1499C46.3382 3.32894 46.2183 3.54557 46.2183 3.7998H45.2192C45.2192 3.50977 45.3213 3.23047 45.5254 2.96191C45.7331 2.68978 46.0124 2.47493 46.3633 2.31738C46.7178 2.15983 47.1063 2.08105 47.5288 2.08105C48.1984 2.08105 48.723 2.24935 49.1025 2.58594C49.4821 2.91895 49.679 3.37907 49.6934 3.96631V6.64111C49.6934 7.17464 49.7614 7.59896 49.8975 7.91406V8H48.8555ZM47.2065 7.24268C47.5181 7.24268 47.8135 7.16211 48.0928 7.00098C48.3721 6.83984 48.5744 6.63037 48.6997 6.37256V5.18018H47.9209C46.7035 5.18018 46.0947 5.53646 46.0947 6.24902C46.0947 6.56055 46.1986 6.80404 46.4062 6.97949C46.6139 7.15495 46.8807 7.24268 47.2065 7.24268ZM55.4834 2.99414H53.5337V8H52.54V2.99414H50.6279V2.18848H55.4834V2.99414ZM58.4321 8.10742C57.6444 8.10742 57.0034 7.84961 56.5093 7.33398C56.0151 6.81478 55.7681 6.12191 55.7681 5.25537V5.07275C55.7681 4.49626 55.8773 3.98242 56.0957 3.53125C56.3177 3.0765 56.6257 2.72201 57.0195 2.46777C57.417 2.20996 57.8467 2.08105 58.3086 2.08105C59.0641 2.08105 59.6514 2.32992 60.0703 2.82764C60.4893 3.32536 60.6987 4.03792 60.6987 4.96533V5.37891H56.7617C56.776 5.95182 56.9425 6.41553 57.2612 6.77002C57.5835 7.12093 57.9917 7.29639 58.4858 7.29639C58.8368 7.29639 59.134 7.22477 59.3774 7.08154C59.6209 6.93831 59.834 6.74854 60.0166 6.51221L60.6235 6.98486C60.1366 7.73324 59.4061 8.10742 58.4321 8.10742ZM58.3086 2.89746C57.9076 2.89746 57.571 3.04427 57.2988 3.33789C57.0267 3.62793 56.8584 4.03613 56.7939 4.5625H59.7051V4.4873C59.6764 3.98242 59.5404 3.59212 59.2969 3.31641C59.0534 3.03711 58.724 2.89746 58.3086 2.89746ZM66.6177 2.18848V8H65.6187V3.01025H63.6421L63.5239 5.18555C63.4595 6.18457 63.2912 6.89893 63.019 7.32861C62.7505 7.7583 62.3226 7.9821 61.7354 8H61.3379V7.12451L61.6226 7.10303C61.9448 7.06722 62.1758 6.88102 62.3154 6.54443C62.4551 6.20785 62.5446 5.5848 62.584 4.67529L62.6914 2.18848H66.6177ZM69.2979 4.19189H70.8071C71.466 4.19906 71.987 4.37093 72.3701 4.70752C72.7533 5.04411 72.9448 5.50065 72.9448 6.07715C72.9448 6.65723 72.7479 7.12272 72.354 7.47363C71.9601 7.82454 71.4302 8 70.7642 8H68.3042V2.18848H69.2979V4.19189ZM69.2979 5.00293V7.18896H70.7749C71.1473 7.18896 71.4355 7.09408 71.6396 6.9043C71.8438 6.71094 71.9458 6.44775 71.9458 6.11475C71.9458 5.79248 71.8455 5.5293 71.645 5.3252C71.4481 5.11751 71.1706 5.01009 70.8125 5.00293H69.2979ZM76.5166 7.29639C76.8711 7.29639 77.1808 7.18896 77.4458 6.97412C77.7108 6.75928 77.8576 6.49072 77.8862 6.16846H78.8262C78.8083 6.50146 78.6937 6.81836 78.4824 7.11914C78.2712 7.41992 77.9883 7.65983 77.6338 7.83887C77.2829 8.0179 76.9105 8.10742 76.5166 8.10742C75.7253 8.10742 75.0951 7.84424 74.626 7.31787C74.1605 6.78792 73.9277 6.06462 73.9277 5.14795V4.98145C73.9277 4.41569 74.0316 3.9126 74.2393 3.47217C74.4469 3.03174 74.7441 2.68978 75.1309 2.44629C75.5212 2.2028 75.9813 2.08105 76.5112 2.08105C77.1629 2.08105 77.7036 2.2762 78.1333 2.6665C78.5666 3.0568 78.7975 3.56348 78.8262 4.18652H77.8862C77.8576 3.81055 77.7144 3.5026 77.4565 3.2627C77.2023 3.01921 76.8872 2.89746 76.5112 2.89746C76.0063 2.89746 75.6143 3.08008 75.335 3.44531C75.0592 3.80697 74.9214 4.33154 74.9214 5.01904V5.20703C74.9214 5.87663 75.0592 6.39225 75.335 6.75391C75.6107 7.11556 76.0046 7.29639 76.5166 7.29639ZM81.7534 5.52393H81.0283V8H80.0293V2.18848H81.0283V4.64844H81.6782L83.6333 2.18848H84.8364L82.5376 4.98145L85.0298 8H83.7676L81.7534 5.52393ZM85.5024 5.04053C85.5024 4.47119 85.6134 3.95915 85.8354 3.50439C86.061 3.04964 86.3726 2.69873 86.77 2.45166C87.1711 2.20459 87.6276 2.08105 88.1396 2.08105C88.931 2.08105 89.5701 2.35498 90.0571 2.90283C90.5477 3.45068 90.793 4.17936 90.793 5.08887V5.15869C90.793 5.72445 90.6838 6.23291 90.4653 6.68408C90.2505 7.13167 89.9408 7.48079 89.5361 7.73145C89.1351 7.9821 88.6732 8.10742 88.1504 8.10742C87.3626 8.10742 86.7235 7.8335 86.2329 7.28564C85.7459 6.73779 85.5024 6.0127 85.5024 5.11035V5.04053ZM86.5015 5.15869C86.5015 5.80322 86.6501 6.32064 86.9473 6.71094C87.248 7.10124 87.6491 7.29639 88.1504 7.29639C88.6553 7.29639 89.0563 7.09945 89.3535 6.70557C89.6507 6.30811 89.7993 5.75309 89.7993 5.04053C89.7993 4.40316 89.6471 3.88753 89.3428 3.49365C89.042 3.09619 88.641 2.89746 88.1396 2.89746C87.6491 2.89746 87.2534 3.09261 86.9526 3.48291C86.6519 3.87321 86.5015 4.4318 86.5015 5.15869ZM94.4507 8.10742C93.6629 8.10742 93.022 7.84961 92.5278 7.33398C92.0337 6.81478 91.7866 6.12191 91.7866 5.25537V5.07275C91.7866 4.49626 91.8958 3.98242 92.1143 3.53125C92.3363 3.0765 92.6442 2.72201 93.0381 2.46777C93.4355 2.20996 93.8652 2.08105 94.3271 2.08105C95.0827 2.08105 95.6699 2.32992 96.0889 2.82764C96.5078 3.32536 96.7173 4.03792 96.7173 4.96533V5.37891H92.7803C92.7946 5.95182 92.9611 6.41553 93.2798 6.77002C93.6021 7.12093 94.0103 7.29639 94.5044 7.29639C94.8553 7.29639 95.1525 7.22477 95.396 7.08154C95.6395 6.93831 95.8525 6.74854 96.0352 6.51221L96.6421 6.98486C96.1551 7.73324 95.4246 8.10742 94.4507 8.10742ZM94.3271 2.89746C93.9261 2.89746 93.5895 3.04427 93.3174 3.33789C93.0452 3.62793 92.877 4.03613 92.8125 4.5625H95.7236V4.4873C95.695 3.98242 95.5589 3.59212 95.3154 3.31641C95.0719 3.03711 94.7425 2.89746 94.3271 2.89746ZM102.932 7.29639C103.286 7.29639 103.596 7.18896 103.861 6.97412C104.126 6.75928 104.273 6.49072 104.301 6.16846H105.241C105.223 6.50146 105.109 6.81836 104.897 7.11914C104.686 7.41992 104.403 7.65983 104.049 7.83887C103.698 8.0179 103.326 8.10742 102.932 8.10742C102.14 8.10742 101.51 7.84424 101.041 7.31787C100.576 6.78792 100.343 6.06462 100.343 5.14795V4.98145C100.343 4.41569 100.447 3.9126 100.654 3.47217C100.862 3.03174 101.159 2.68978 101.546 2.44629C101.936 2.2028 102.396 2.08105 102.926 2.08105C103.578 2.08105 104.119 2.2762 104.548 2.6665C104.982 3.0568 105.213 3.56348 105.241 4.18652H104.301C104.273 3.81055 104.129 3.5026 103.872 3.2627C103.617 3.01921 103.302 2.89746 102.926 2.89746C102.421 2.89746 102.029 3.08008 101.75 3.44531C101.474 3.80697 101.336 4.33154 101.336 5.01904V5.20703C101.336 5.87663 101.474 6.39225 101.75 6.75391C102.026 7.11556 102.42 7.29639 102.932 7.29639ZM106.095 5.04053C106.095 4.47119 106.206 3.95915 106.428 3.50439C106.654 3.04964 106.965 2.69873 107.363 2.45166C107.764 2.20459 108.22 2.08105 108.732 2.08105C109.524 2.08105 110.163 2.35498 110.65 2.90283C111.14 3.45068 111.386 4.17936 111.386 5.08887V5.15869C111.386 5.72445 111.277 6.23291 111.058 6.68408C110.843 7.13167 110.534 7.48079 110.129 7.73145C109.728 7.9821 109.266 8.10742 108.743 8.10742C107.955 8.10742 107.316 7.8335 106.826 7.28564C106.339 6.73779 106.095 6.0127 106.095 5.11035V5.04053ZM107.094 5.15869C107.094 5.80322 107.243 6.32064 107.54 6.71094C107.841 7.10124 108.242 7.29639 108.743 7.29639C109.248 7.29639 109.649 7.09945 109.946 6.70557C110.243 6.30811 110.392 5.75309 110.392 5.04053C110.392 4.40316 110.24 3.88753 109.936 3.49365C109.635 3.09619 109.234 2.89746 108.732 2.89746C108.242 2.89746 107.846 3.09261 107.545 3.48291C107.245 3.87321 107.094 4.4318 107.094 5.15869ZM116.386 3.01025H113.706V8H112.707V2.18848H116.386V3.01025ZM121.8 2.18848V8H120.801V3.01025H118.825L118.707 5.18555C118.642 6.18457 118.474 6.89893 118.202 7.32861C117.933 7.7583 117.505 7.9821 116.918 8H116.521V7.12451L116.805 7.10303C117.127 7.06722 117.358 6.88102 117.498 6.54443C117.638 6.20785 117.727 5.5848 117.767 4.67529L117.874 2.18848H121.8ZM126.983 8C126.926 7.88542 126.88 7.68132 126.844 7.3877C126.382 7.86751 125.83 8.10742 125.189 8.10742C124.617 8.10742 124.146 7.94629 123.777 7.62402C123.412 7.29818 123.229 6.88639 123.229 6.38867C123.229 5.78353 123.458 5.31445 123.917 4.98145C124.378 4.64486 125.027 4.47656 125.861 4.47656H126.828V4.02002C126.828 3.67269 126.724 3.39697 126.516 3.19287C126.308 2.98519 126.002 2.88135 125.598 2.88135C125.243 2.88135 124.946 2.97087 124.706 3.1499C124.466 3.32894 124.346 3.54557 124.346 3.7998H123.347C123.347 3.50977 123.449 3.23047 123.653 2.96191C123.861 2.68978 124.14 2.47493 124.491 2.31738C124.846 2.15983 125.234 2.08105 125.657 2.08105C126.326 2.08105 126.851 2.24935 127.23 2.58594C127.61 2.91895 127.807 3.37907 127.821 3.96631V6.64111C127.821 7.17464 127.889 7.59896 128.025 7.91406V8H126.983ZM125.334 7.24268C125.646 7.24268 125.941 7.16211 126.221 7.00098C126.5 6.83984 126.702 6.63037 126.828 6.37256V5.18018H126.049C124.831 5.18018 124.223 5.53646 124.223 6.24902C124.223 6.56055 124.326 6.80404 124.534 6.97949C124.742 7.15495 125.009 7.24268 125.334 7.24268ZM130.464 2.18848V7.18896H132.591V2.18848H133.584V7.18896H135.706V2.18848H136.705V8H129.465V2.18848H130.464ZM140.685 8.10742C139.897 8.10742 139.256 7.84961 138.762 7.33398C138.268 6.81478 138.021 6.12191 138.021 5.25537V5.07275C138.021 4.49626 138.13 3.98242 138.349 3.53125C138.571 3.0765 138.879 2.72201 139.272 2.46777C139.67 2.20996 140.1 2.08105 140.562 2.08105C141.317 2.08105 141.904 2.32992 142.323 2.82764C142.742 3.32536 142.952 4.03792 142.952 4.96533V5.37891H139.015C139.029 5.95182 139.195 6.41553 139.514 6.77002C139.836 7.12093 140.245 7.29639 140.739 7.29639C141.09 7.29639 141.387 7.22477 141.63 7.08154C141.874 6.93831 142.087 6.74854 142.27 6.51221L142.876 6.98486C142.389 7.73324 141.659 8.10742 140.685 8.10742ZM140.562 2.89746C140.16 2.89746 139.824 3.04427 139.552 3.33789C139.28 3.62793 139.111 4.03613 139.047 4.5625H141.958V4.4873C141.929 3.98242 141.793 3.59212 141.55 3.31641C141.306 3.03711 140.977 2.89746 140.562 2.89746ZM148.854 8H147.861V5.51855H145.191V8H144.192V2.18848H145.191V4.70752H147.861V2.18848H148.854V8ZM154.215 2.18848H155.208V8H154.215V3.76221L151.535 8H150.541V2.18848H151.535V6.43164L154.215 2.18848ZM159.215 8.10742C158.428 8.10742 157.787 7.84961 157.292 7.33398C156.798 6.81478 156.551 6.12191 156.551 5.25537V5.07275C156.551 4.49626 156.66 3.98242 156.879 3.53125C157.101 3.0765 157.409 2.72201 157.803 2.46777C158.2 2.20996 158.63 2.08105 159.092 2.08105C159.847 2.08105 160.435 2.32992 160.854 2.82764C161.272 3.32536 161.482 4.03792 161.482 4.96533V5.37891H157.545C157.559 5.95182 157.726 6.41553 158.044 6.77002C158.367 7.12093 158.775 7.29639 159.269 7.29639C159.62 7.29639 159.917 7.22477 160.161 7.08154C160.404 6.93831 160.617 6.74854 160.8 6.51221L161.407 6.98486C160.92 7.73324 160.189 8.10742 159.215 8.10742ZM159.092 2.89746C158.691 2.89746 158.354 3.04427 158.082 3.33789C157.81 3.62793 157.642 4.03613 157.577 4.5625H160.488V4.4873C160.46 3.98242 160.324 3.59212 160.08 3.31641C159.837 3.03711 159.507 2.89746 159.092 2.89746Z" fill="white"/>
</svg>
